<svg width="256" height="102" viewBox="0 0 256 102" fill="none" xmlns="http://www.w3.org/2000/svg">
<g clip-path="url(#clip0_1082_1185)">
<path d="M131.596 3.27246H139.423V6.47461H131.596V8.64453H138.782V18.6416H129.39C130.077 19.1397 130.765 19.6978 131.453 20.3145C132.165 20.9074 132.817 21.5123 133.41 22.1289C133.102 22.4372 132.711 22.8523 132.236 23.374C131.762 23.872 131.382 24.3339 131.098 24.7607C130.528 24.0255 129.793 23.2546 128.892 22.4482V27.7139C128.892 28.022 128.939 28.2234 129.034 28.3184C129.153 28.4132 129.402 28.4609 129.781 28.4609H130.742C131.074 28.4609 131.323 28.4256 131.489 28.3545C131.679 28.2595 131.833 28.0218 131.951 27.6426C132.07 27.2631 132.177 26.6466 132.271 25.793C132.651 25.9827 133.197 26.1964 133.908 26.4336C134.62 26.6707 135.225 26.8482 135.723 26.9668C135.557 28.4373 135.295 29.5526 134.939 30.3115C134.607 31.0702 134.133 31.5685 133.517 31.8057C132.924 32.0665 132.141 32.1963 131.169 32.1963H128.358C127.267 32.1963 126.484 32.0189 126.01 31.6631C125.536 31.3074 125.299 30.6907 125.299 29.8135V21.8438H128.216C127.907 21.5829 127.587 21.3339 127.255 21.0967C126.947 20.8359 126.651 20.622 126.366 20.4561L127.896 18.6416H120.603V8.64453H127.54V6.47461H120.068V4.80273H118.823V28.959C119.155 28.3661 119.487 27.6543 119.819 26.8242C120.151 25.9942 120.448 25.1525 120.709 24.2988C120.994 23.4213 121.195 22.638 121.313 21.9502L124.622 22.6621C124.409 24.0376 124.03 25.4489 123.484 26.8955C122.963 28.3423 122.369 29.635 121.705 30.7734C121.326 30.5601 120.875 30.3233 120.354 30.0625C119.832 29.8253 119.321 29.6355 118.823 29.4932V32.5879H115.302V26.042C114.685 26.2554 113.926 26.5159 113.024 26.8242C112.123 27.1088 111.222 27.3941 110.32 27.6787C109.443 27.9395 108.684 28.1524 108.044 28.3184L107.083 24.5479C107.344 24.5004 107.652 24.4412 108.008 24.3701C108.387 24.299 108.767 24.2159 109.146 24.1211V4.80273H107.403V1.42285H120.638V3.27246H127.54V0.212891H131.596V3.27246ZM84.2754 4.87402H96.4072V8.53809H71.8945V15.2979C71.8945 18.9028 71.5625 22.1047 70.8984 24.9033C70.2581 27.6783 69.2506 30.2169 67.875 32.5176C67.3295 32.1144 66.6884 31.7223 65.9531 31.3428C65.2419 30.9635 64.5898 30.679 63.9971 30.4893C65.3489 28.6393 66.3097 26.445 66.8789 23.9072C67.4718 21.3695 67.7676 18.4996 67.7676 15.2979V4.87402H79.8281V0H84.2754V4.87402ZM85.2363 11.3135C85.0229 12.2384 84.7147 13.3414 84.3115 14.6221C83.9083 15.8791 83.4571 17.2195 82.959 18.6426C82.461 20.0654 81.939 21.4644 81.3936 22.8398C80.8718 24.1917 80.3738 25.4253 79.8994 26.54C81.6545 26.3029 83.3861 26.0663 85.0938 25.8291C86.8014 25.5682 88.3078 25.3192 89.6123 25.082C88.9482 23.9673 88.2718 22.8997 87.584 21.8799C86.9199 20.8363 86.2673 19.9348 85.627 19.1758L89.0068 17.1484C89.6946 17.9548 90.4302 18.927 91.2129 20.0654C92.0193 21.1801 92.8026 22.3537 93.5615 23.5869C94.3205 24.7965 95.0198 25.9833 95.6602 27.1455C96.3004 28.2838 96.8224 29.3039 97.2256 30.2051C96.8935 30.3474 96.4661 30.5363 95.9443 30.7734C95.4464 31.0343 94.9606 31.2958 94.4863 31.5566C94.012 31.8412 93.6323 32.0903 93.3477 32.3037C93.1105 31.7345 92.8262 31.1058 92.4941 30.418C92.1621 29.7539 91.7938 29.0545 91.3906 28.3193C90.3709 28.5565 89.1971 28.8056 87.8691 29.0664C86.541 29.3273 85.1413 29.5877 83.6709 29.8486C82.2241 30.0858 80.7769 30.311 79.3301 30.5244C77.9072 30.7616 76.5674 30.9639 75.3105 31.1299C74.0772 31.3196 73.0211 31.4618 72.1436 31.5566L71.29 27.4297C71.8118 27.3823 72.4167 27.3345 73.1045 27.2871C73.8159 27.2397 74.5747 27.1691 75.3809 27.0742C75.7841 26.2204 76.2 25.2234 76.627 24.085C77.0775 22.923 77.5155 21.7014 77.9424 20.4209C78.393 19.1401 78.8204 17.8713 79.2236 16.6143C79.6268 15.3572 79.9703 14.1828 80.2549 13.0918C80.5632 12.0009 80.7893 11.0877 80.9316 10.3525L85.2363 11.3135ZM178.235 31.4639H173.271L170.404 23.8037H158.395L155.527 31.4639H150.648L162.533 0.992188H166.352L178.235 31.4639ZM192.002 31.4639H187.592V0.992188H192.002V31.4639ZM151.026 31.2061H151.027L162.711 1.25H162.709L151.026 31.2061ZM173.45 31.2061H173.452L170.585 23.5459H170.583L173.45 31.2061ZM191.741 31.2061H191.744V1.25H191.741V31.2061ZM136.292 21.0967C136.909 21.7844 137.501 22.5554 138.07 23.4092C138.663 24.2393 139.209 25.0817 139.707 25.9355C140.205 26.7893 140.62 27.5603 140.952 28.248C140.525 28.4378 139.992 28.7337 139.352 29.1367C138.735 29.5399 138.26 29.8843 137.928 30.1689C137.619 29.4337 137.228 28.639 136.754 27.7852C136.28 26.9076 135.758 26.0537 135.188 25.2236C134.619 24.3936 134.051 23.6579 133.481 23.0176L136.292 21.0967ZM112.704 23.2666C113.178 23.148 113.63 23.0297 114.057 22.9111C114.507 22.7689 114.922 22.6505 115.302 22.5557V19.2109H112.704V23.2666ZM164.464 6.85645L169.257 19.8652H169.259L164.465 6.85547L164.464 6.85645ZM159.915 19.6074H168.887L164.461 7.59277L159.915 19.6074ZM112.704 15.7607H115.302V11.918H112.704V15.7607ZM124.089 15.5107H125.832V11.7754H124.089V15.5107ZM128.82 15.5107H130.492V11.7754H128.82V15.5107ZM133.517 15.5107H135.331V11.7754H133.517V15.5107ZM112.704 8.4668H115.302V4.80273H112.704V8.4668Z" fill="#27272A"/>
</g>
<path d="M71.3153 64.94L71.2613 64.922C70.9373 65.21 70.4693 65.372 69.9293 65.372C68.1653 65.372 66.8693 64.184 66.8693 62.132C66.8693 60.368 67.9853 59.144 69.6593 59.144C70.0373 59.144 70.3973 59.198 70.7393 59.288C70.7213 58.802 70.7033 58.334 70.6853 57.848C68.2553 57.956 65.8073 58.082 63.7013 58.226C63.0533 58.262 62.6933 57.722 62.6933 57.2C62.6933 56.732 62.9813 56.264 63.6113 56.228C65.7353 56.102 68.2013 55.976 70.6673 55.886C70.6493 55.238 70.6493 54.5 70.6493 53.69C70.6493 53.114 71.1533 52.808 71.6573 52.808C72.1433 52.808 72.6293 53.096 72.6293 53.672C72.6293 54.464 72.6293 55.166 72.6293 55.814C74.5013 55.76 76.3013 55.724 77.9033 55.724C78.5333 55.724 78.8393 56.21 78.8393 56.714C78.8393 57.182 78.5333 57.668 77.9753 57.668C76.3733 57.668 74.5373 57.722 72.6653 57.776C72.6833 58.82 72.7193 59.846 72.7913 60.89C73.1873 61.538 73.4033 62.366 73.4033 63.284C73.4033 66.128 71.9453 68.09 69.3533 69.278C69.1733 69.35 69.0113 69.386 68.8673 69.386C68.2733 69.386 67.8413 68.9 67.8413 68.378C67.8413 68.036 68.0393 67.676 68.5433 67.46C70.0013 66.83 70.9913 65.804 71.3153 64.94ZM69.8213 60.908C69.2093 60.908 68.7773 61.394 68.7773 62.186C68.7773 63.068 69.4253 63.608 70.0193 63.608C70.6313 63.608 71.0813 63.176 71.0813 62.348C71.0813 61.538 70.5953 60.908 69.8213 60.908ZM93.5002 57.596C93.3742 57.452 93.3202 57.308 93.3202 57.182C93.3202 56.822 93.6802 56.498 94.0762 56.498C94.2382 56.498 94.4182 56.552 94.5802 56.696C95.0662 57.128 95.6062 57.704 95.9842 58.262C96.1102 58.424 96.1462 58.586 96.1462 58.748C96.1462 59.144 95.8042 59.468 95.4262 59.468C95.2102 59.468 94.9942 59.36 94.8322 59.126C94.4002 58.532 93.9142 58.01 93.5002 57.596ZM95.3002 56.174C95.1562 56.03 95.1022 55.886 95.1022 55.742C95.1022 55.382 95.4442 55.076 95.8582 55.076C96.0382 55.076 96.2182 55.148 96.3982 55.292C96.8662 55.688 97.4062 56.246 97.7842 56.768C97.9282 56.948 97.9822 57.128 97.9822 57.308C97.9822 57.704 97.6402 57.992 97.2622 57.992C97.0462 57.992 96.8122 57.902 96.6322 57.668C96.2182 57.146 95.7142 56.606 95.3002 56.174ZM84.1762 61.358C85.5622 60.242 86.9482 59.162 88.0462 58.37C88.5322 58.028 89.0182 57.848 89.5042 57.848C90.0082 57.848 90.4942 58.046 90.9622 58.46C92.9422 60.224 96.1282 62.474 98.7562 63.896C99.2242 64.148 99.4222 64.544 99.4222 64.922C99.4222 65.498 98.9542 66.056 98.3242 66.056C98.1082 66.056 97.8922 65.984 97.6582 65.858C94.9582 64.31 91.7362 61.88 89.9542 60.188C89.7742 60.008 89.5942 59.918 89.4322 59.918C89.2702 59.918 89.1262 59.99 88.9462 60.134C88.0822 60.818 86.6782 61.916 85.4722 62.942C85.2202 63.14 84.9682 63.23 84.7342 63.23C84.1762 63.23 83.7082 62.744 83.7082 62.204C83.7082 61.916 83.8522 61.61 84.1762 61.358ZM113.215 57.218V57.182C111.055 57.47 108.193 57.902 105.601 58.28C104.845 58.388 104.413 57.83 104.413 57.272C104.413 56.804 104.701 56.354 105.349 56.282C109.093 55.796 113.737 55.292 117.481 54.95C118.183 54.896 118.561 55.4 118.561 55.904C118.561 56.336 118.291 56.768 117.733 56.876C117.103 56.984 116.419 57.218 115.753 57.596C112.945 59.198 112.351 61.07 112.351 62.78C112.351 64.778 113.737 66.002 116.257 66.308C116.923 66.398 117.229 66.884 117.229 67.37C117.229 67.928 116.815 68.486 116.059 68.432C112.657 68.18 110.263 65.894 110.263 62.834C110.263 60.944 111.181 58.82 113.215 57.218ZM127.231 66.776C125.395 66.776 123.865 65.3 123.865 62.492C123.865 58.388 127.267 55.022 132.217 55.022C136.609 55.022 139.147 57.776 139.147 61.358C139.147 64.616 137.221 67.01 134.125 68C133.981 68.054 133.837 68.072 133.711 68.072C133.099 68.072 132.703 67.568 132.703 67.046C132.703 66.65 132.919 66.254 133.459 66.056C136.015 65.138 137.041 63.59 137.041 61.358C137.041 59 135.439 57.056 132.703 56.858C132.523 59.846 131.785 62.546 130.669 64.508C129.679 66.254 128.617 66.776 127.231 66.776ZM130.597 56.984C127.915 57.506 125.935 59.828 125.935 62.492C125.935 64.148 126.583 64.76 127.231 64.76C127.789 64.76 128.275 64.472 128.797 63.554C129.715 61.952 130.381 59.63 130.597 56.984ZM151.388 54.284V53.348C151.388 52.844 151.874 52.592 152.36 52.592C152.846 52.592 153.332 52.844 153.332 53.348V54.284H159.65C160.118 54.284 160.352 54.68 160.352 55.094C160.352 55.49 160.118 55.904 159.65 55.904H153.332V56.966H158.066C158.516 56.966 158.75 57.362 158.75 57.776C158.75 58.172 158.516 58.586 158.066 58.586H146.654C146.204 58.586 145.988 58.172 145.988 57.776C145.988 57.362 146.204 56.966 146.654 56.966H151.388V55.904H145.196C144.746 55.904 144.512 55.49 144.512 55.094C144.512 54.68 144.746 54.284 145.196 54.284H151.388ZM156.896 64.292H148.184C147.914 66.182 147.176 67.874 146.078 69.242C145.79 69.602 145.448 69.746 145.124 69.746C144.602 69.746 144.134 69.332 144.134 68.81C144.134 68.594 144.224 68.342 144.422 68.108C145.718 66.524 146.33 64.76 146.33 62.546V61.376C146.33 60.17 146.87 59.612 148.49 59.612H156.896C158.3 59.612 158.894 60.08 158.894 61.25V62.654C158.876 64.004 158.102 64.274 156.896 64.292ZM151.532 61.16H148.832C148.454 61.16 148.31 61.286 148.31 61.664V62.618C148.31 62.654 148.31 62.708 148.31 62.744H151.532V61.16ZM153.44 61.16V62.744H156.482C156.806 62.744 156.914 62.654 156.914 62.366V61.538C156.914 61.25 156.806 61.16 156.482 61.16H153.44ZM170.723 59.666C170.003 62.636 168.941 65.534 167.681 67.802C167.429 68.198 167.069 68.378 166.709 68.378C166.187 68.378 165.719 68.018 165.719 67.478C165.719 67.316 165.773 67.118 165.881 66.92C167.015 64.922 167.951 62.456 168.635 59.882C167.897 59.972 167.177 60.098 166.493 60.242C165.791 60.386 165.395 59.864 165.395 59.342C165.395 58.928 165.647 58.514 166.205 58.406C167.123 58.226 168.113 58.1 169.067 57.992C169.283 56.894 169.463 55.778 169.589 54.68C169.661 54.104 170.111 53.834 170.579 53.834C171.119 53.834 171.659 54.194 171.587 54.86C171.479 55.832 171.317 56.84 171.119 57.83C171.479 57.812 171.803 57.812 172.091 57.812C174.395 57.812 175.241 58.856 175.241 61.682C175.241 63.374 175.079 64.886 174.755 65.984C174.197 68.054 173.369 68.792 171.551 68.792C171.119 68.792 170.669 68.756 170.327 68.702C169.715 68.612 169.445 68.162 169.445 67.73C169.445 67.19 169.823 66.668 170.507 66.758C170.849 66.794 171.119 66.83 171.497 66.83C172.127 66.83 172.451 66.632 172.757 65.57C173.063 64.544 173.225 63.14 173.225 61.664C173.225 60.044 172.919 59.612 172.055 59.612C171.659 59.612 171.209 59.63 170.723 59.666ZM177.887 56.588C179.021 57.668 180.137 59.324 180.749 60.53C180.857 60.746 180.893 60.962 180.893 61.142C180.893 61.772 180.389 62.186 179.849 62.186C179.489 62.186 179.093 61.988 178.859 61.502C178.193 60.206 177.257 58.82 176.303 57.794C176.105 57.578 176.015 57.344 176.015 57.146C176.015 56.642 176.519 56.246 177.059 56.246C177.347 56.246 177.635 56.354 177.887 56.588ZM179.435 53.312C179.291 53.168 179.237 53.024 179.237 52.88C179.237 52.52 179.579 52.214 179.993 52.214C180.173 52.214 180.353 52.286 180.533 52.43C181.001 52.826 181.541 53.384 181.919 53.906C182.063 54.086 182.117 54.266 182.117 54.446C182.117 54.842 181.775 55.13 181.397 55.13C181.181 55.13 180.947 55.04 180.767 54.806C180.353 54.284 179.849 53.744 179.435 53.312ZM177.635 54.734C177.509 54.59 177.455 54.446 177.455 54.32C177.455 53.96 177.815 53.636 178.211 53.636C178.373 53.636 178.553 53.69 178.715 53.834C179.201 54.266 179.741 54.842 180.119 55.4C180.245 55.562 180.281 55.724 180.281 55.886C180.281 56.282 179.939 56.606 179.561 56.606C179.345 56.606 179.129 56.498 178.967 56.264C178.535 55.67 178.049 55.148 177.635 54.734ZM186.486 66.11C186.18 65.894 186.072 65.624 186.072 65.372C186.072 64.886 186.486 64.436 187.044 64.436C187.242 64.436 187.458 64.508 187.674 64.634C188.682 65.246 190.068 66.452 190.896 67.478C191.13 67.766 191.22 68.054 191.22 68.306C191.22 68.882 190.734 69.314 190.176 69.314C189.87 69.314 189.546 69.188 189.294 68.864C188.466 67.856 187.368 66.758 186.486 66.11ZM28.5249 89.888V95.846C28.5249 96.35 28.0569 96.602 27.5889 96.602C27.1029 96.602 26.6349 96.35 26.6349 95.846V90.158C26.2209 90.5 25.8069 90.806 25.3929 91.094C25.1949 91.238 24.9789 91.292 24.7989 91.292C24.3129 91.292 23.9349 90.86 23.9349 90.41C23.9349 90.122 24.0789 89.834 24.4029 89.618C26.1489 88.502 27.7509 86.648 28.4889 85.082C28.5249 84.992 28.5429 84.938 28.5429 84.884C28.5429 84.758 28.4349 84.704 28.2189 84.704H25.0149C24.5649 84.704 24.3489 84.272 24.3489 83.84C24.3489 83.426 24.5649 82.994 25.0149 82.994H26.6349V80.51C26.6349 80.006 27.1029 79.772 27.5889 79.772C28.0569 79.772 28.5249 80.006 28.5249 80.51V82.994H29.0469C30.0729 82.994 30.6489 83.462 30.6489 84.29C30.6489 84.578 30.5769 84.92 30.4149 85.298C30.0189 86.234 29.4069 87.188 28.6689 88.088C29.4249 88.448 30.2349 88.934 30.7569 89.348C31.0629 89.582 31.1889 89.852 31.1889 90.104C31.1889 90.572 30.7929 90.968 30.3429 90.968C30.1449 90.968 29.9469 90.896 29.7489 90.734C29.3889 90.446 28.9749 90.158 28.5249 89.888ZM34.5909 93.902V88.07H31.9989C31.4769 88.07 31.2069 87.602 31.2069 87.152C31.2069 86.684 31.4769 86.234 31.9989 86.234H34.5909V80.96C34.5909 80.366 35.0949 80.078 35.5989 80.078C36.1029 80.078 36.6069 80.366 36.6069 80.96V86.234H39.5229C40.0629 86.234 40.3149 86.684 40.3149 87.152C40.3149 87.602 40.0629 88.07 39.5229 88.07H36.6069V93.902H40.0809C40.6209 93.902 40.8729 94.352 40.8729 94.82C40.8729 95.27 40.6209 95.738 40.0809 95.738H30.8829C30.3609 95.738 30.0909 95.27 30.0909 94.82C30.0909 94.352 30.3609 93.902 30.8829 93.902H34.5909ZM54.3729 80.744C56.1369 82.796 58.7289 84.686 61.2489 85.91C61.7169 86.144 61.9149 86.522 61.9149 86.882C61.9149 87.404 61.5369 87.872 60.9429 87.872C60.7449 87.872 60.5469 87.836 60.3129 87.71C57.8289 86.432 55.2189 84.398 53.3109 82.184C51.4029 84.434 48.9009 86.54 46.3269 87.998C46.1469 88.106 45.9849 88.142 45.8229 88.142C45.3009 88.142 44.8869 87.674 44.8869 87.188C44.8869 86.882 45.0489 86.558 45.4449 86.324C48.1989 84.722 50.7009 82.526 52.5369 80.042C52.7709 79.736 53.0949 79.592 53.4189 79.592C53.9409 79.592 54.4269 79.952 54.4269 80.456C54.4269 80.546 54.4089 80.636 54.3729 80.744ZM59.9169 90.842H52.7889C52.2489 91.922 51.6549 92.966 51.0069 93.974C52.6269 93.848 54.2469 93.722 55.8489 93.506C55.5969 93.236 55.3269 92.984 55.0929 92.768C54.8769 92.57 54.7869 92.354 54.7869 92.156C54.7869 91.706 55.2189 91.31 55.7409 91.31C55.9749 91.31 56.2089 91.4 56.4429 91.58C57.5049 92.444 58.6929 93.668 59.4849 94.694C59.6829 94.946 59.7729 95.198 59.7729 95.414C59.7729 95.936 59.3049 96.314 58.8009 96.314C58.4769 96.314 58.1349 96.17 57.8649 95.81C57.6669 95.54 57.4329 95.252 57.1989 94.982C54.0309 95.504 50.8089 95.828 47.5329 95.99C46.8849 96.026 46.5609 95.54 46.5609 95.072C46.5609 94.622 46.8489 94.172 47.4789 94.154C47.8929 94.136 48.3069 94.118 48.7209 94.1C49.4049 93.038 50.0709 91.976 50.6109 90.842H46.9029C46.3809 90.842 46.1109 90.392 46.1109 89.96C46.1109 89.51 46.3809 89.078 46.9029 89.078H59.9169C60.4569 89.078 60.7089 89.51 60.7089 89.96C60.7089 90.392 60.4569 90.842 59.9169 90.842ZM50.5569 85.82H56.2269C56.7669 85.82 57.0189 86.252 57.0189 86.702C57.0189 87.134 56.7669 87.584 56.2269 87.584H50.5569C50.0349 87.584 49.7649 87.134 49.7649 86.702C49.7649 86.252 50.0349 85.82 50.5569 85.82ZM70.681 86.468L70.717 86.504C71.185 86.324 71.707 86.198 72.265 86.198C73.507 86.198 74.317 86.576 74.785 87.908C76.189 87.314 77.701 86.774 79.285 86.288C79.411 86.252 79.537 86.234 79.645 86.234C80.239 86.234 80.581 86.72 80.581 87.206C80.581 87.584 80.365 87.98 79.861 88.124C78.295 88.592 76.693 89.132 75.181 89.744C75.271 90.41 75.307 91.202 75.343 92.138C75.361 92.75 74.839 93.074 74.317 93.074C73.849 93.074 73.381 92.804 73.363 92.246C73.345 91.562 73.309 90.986 73.273 90.5C71.401 91.454 70.969 92.264 70.969 92.93C70.969 93.632 71.617 94.046 73.687 94.046C74.821 94.046 76.009 93.938 77.179 93.74C77.899 93.614 78.349 94.154 78.349 94.712C78.349 95.144 78.061 95.576 77.449 95.684C76.279 95.9 74.947 95.972 73.759 95.972C70.357 95.972 68.917 94.838 68.917 93.074C68.917 91.634 69.763 90.248 72.967 88.646C72.733 87.98 72.355 87.836 71.707 87.836C71.041 87.836 69.727 88.322 68.017 89.69C67.801 89.852 67.585 89.924 67.369 89.924C66.847 89.924 66.397 89.474 66.397 88.97C66.397 88.7 66.523 88.43 66.811 88.178C67.945 87.188 68.971 86.018 69.853 84.668C69.151 84.722 68.503 84.74 67.909 84.758C67.261 84.776 66.919 84.29 66.919 83.822C66.919 83.372 67.243 82.904 67.909 82.904C68.755 82.904 69.763 82.85 70.807 82.778C71.113 82.058 71.383 81.356 71.599 80.69C71.743 80.24 72.121 80.042 72.517 80.042C73.021 80.042 73.507 80.366 73.507 80.87C73.507 80.96 73.507 81.05 73.471 81.14C73.309 81.644 73.129 82.112 72.931 82.562C73.867 82.472 74.767 82.346 75.541 82.202C76.243 82.076 76.621 82.562 76.621 83.048C76.621 83.444 76.369 83.858 75.829 83.948C74.695 84.146 73.345 84.344 72.013 84.47C71.563 85.208 71.113 85.892 70.681 86.468ZM89.1354 85.28V84.506H85.5894C85.1574 84.506 84.9234 84.128 84.9234 83.732C84.9234 83.354 85.1574 82.976 85.5894 82.976H89.1354V82.274C88.3434 82.346 87.5694 82.4 86.8494 82.418C86.3094 82.436 86.0214 82.04 86.0214 81.644C86.0214 81.266 86.2734 80.888 86.8134 80.87C88.8654 80.798 91.1154 80.492 93.0234 80.15C93.6534 80.042 94.0494 80.528 94.0494 80.978C94.0494 81.338 93.8334 81.68 93.3114 81.77C92.5554 81.896 91.7634 82.004 90.9534 82.094V82.976H94.1754C94.6254 82.976 94.8414 83.354 94.8414 83.75C94.8414 84.128 94.6254 84.506 94.1754 84.506H90.9534V85.28H92.3394C93.6894 85.28 94.2654 85.82 94.2654 86.846V89.348C94.2474 90.59 93.4374 90.896 92.3394 90.914H90.9534V91.67H93.3294C93.7794 91.67 93.9954 92.03 93.9954 92.408C93.9954 92.768 93.7794 93.128 93.3294 93.128H90.9534V93.956C91.7094 93.866 92.4474 93.74 93.1854 93.614C93.7794 93.506 94.1214 93.938 94.1214 94.37C94.1214 94.694 93.9234 95.018 93.4734 95.108C91.3854 95.522 88.3974 95.918 86.0034 96.008C85.4454 96.026 85.1394 95.576 85.1394 95.144C85.1394 94.748 85.3914 94.37 85.9314 94.352C86.9034 94.316 88.0194 94.244 89.1354 94.136V93.128H86.5794C86.1474 93.128 85.9134 92.768 85.9134 92.39C85.9134 92.03 86.1474 91.67 86.5794 91.67H89.1354V90.914H87.8754C86.5254 90.914 85.9494 90.374 85.9494 89.348V86.846C85.9494 85.82 86.5254 85.28 87.8754 85.28H89.1354ZM90.8814 89.564H92.1234C92.4654 89.564 92.5734 89.492 92.5734 89.222V88.718H90.8814V89.564ZM88.0914 89.564H89.2074V88.718H87.6414V89.222C87.6414 89.528 87.8214 89.564 88.0914 89.564ZM87.6414 87.476H89.2074V86.63H88.0914C87.7494 86.63 87.6414 86.756 87.6414 87.026V87.476ZM90.8814 86.63V87.476H92.5734V87.026C92.5734 86.756 92.4654 86.63 92.1234 86.63H90.8814ZM99.1794 85.982L98.2614 86C98.1894 90.518 97.3794 93.614 95.6154 96.062C95.3814 96.386 95.0574 96.512 94.7514 96.512C94.2654 96.512 93.8154 96.17 93.8154 95.684C93.8154 95.504 93.8874 95.288 94.0494 95.054C94.3914 94.55 94.7154 94.046 94.9854 93.506C95.7774 91.886 96.1554 90.068 96.3354 88.268C96.3894 87.53 96.4074 86.792 96.4254 86.036L95.4354 86.054C94.9314 86.072 94.6794 85.622 94.6794 85.19C94.6794 84.776 94.9134 84.362 95.3814 84.362L96.4434 84.344V80.798C96.4434 80.258 96.8934 80.006 97.3614 80.006C97.8114 80.006 98.2614 80.258 98.2614 80.798V84.308L99.4494 84.29C101.051 84.254 101.447 84.956 101.447 86.162C101.447 89.402 101.285 92.048 101.051 93.884C100.817 95.72 100.115 96.314 98.9094 96.314C98.4954 96.314 98.1534 96.296 97.7394 96.224C97.1994 96.116 96.9834 95.738 96.9834 95.342C96.9834 94.82 97.3794 94.28 97.9914 94.406C98.2254 94.442 98.4414 94.46 98.6394 94.46C98.9814 94.46 99.1254 94.334 99.2154 93.686C99.4854 91.904 99.6114 89.276 99.6114 86.396C99.6114 86.09 99.5214 85.982 99.1794 85.982ZM111.791 86.306C111.071 89.276 110.009 92.174 108.749 94.442C108.497 94.838 108.137 95.018 107.777 95.018C107.255 95.018 106.787 94.658 106.787 94.118C106.787 93.956 106.841 93.758 106.949 93.56C108.083 91.562 109.019 89.096 109.703 86.522C108.965 86.612 108.245 86.738 107.561 86.882C106.859 87.026 106.463 86.504 106.463 85.982C106.463 85.568 106.715 85.154 107.273 85.046C108.191 84.866 109.181 84.74 110.135 84.632C110.351 83.534 110.531 82.418 110.657 81.32C110.729 80.744 111.179 80.474 111.647 80.474C112.187 80.474 112.727 80.834 112.655 81.5C112.547 82.472 112.385 83.48 112.187 84.47C112.547 84.452 112.871 84.452 113.159 84.452C115.463 84.452 116.309 85.496 116.309 88.322C116.309 90.014 116.147 91.526 115.823 92.624C115.265 94.694 114.437 95.432 112.619 95.432C112.187 95.432 111.737 95.396 111.395 95.342C110.783 95.252 110.513 94.802 110.513 94.37C110.513 93.83 110.891 93.308 111.575 93.398C111.917 93.434 112.187 93.47 112.565 93.47C113.195 93.47 113.519 93.272 113.825 92.21C114.131 91.184 114.293 89.78 114.293 88.304C114.293 86.684 113.987 86.252 113.123 86.252C112.727 86.252 112.277 86.27 111.791 86.306ZM119.135 83.228C120.269 84.308 121.385 85.964 121.997 87.17C122.105 87.386 122.141 87.602 122.141 87.782C122.141 88.412 121.637 88.826 121.097 88.826C120.737 88.826 120.341 88.628 120.107 88.142C119.441 86.846 118.505 85.46 117.551 84.434C117.353 84.218 117.263 83.984 117.263 83.786C117.263 83.282 117.767 82.886 118.307 82.886C118.595 82.886 118.883 82.994 119.135 83.228ZM135.511 91.94L135.457 91.922C135.133 92.21 134.665 92.372 134.125 92.372C132.361 92.372 131.065 91.184 131.065 89.132C131.065 87.368 132.181 86.144 133.855 86.144C134.233 86.144 134.593 86.198 134.935 86.288C134.917 85.802 134.899 85.334 134.881 84.848C132.451 84.956 130.003 85.082 127.897 85.226C127.249 85.262 126.889 84.722 126.889 84.2C126.889 83.732 127.177 83.264 127.807 83.228C129.931 83.102 132.397 82.976 134.863 82.886C134.845 82.238 134.845 81.5 134.845 80.69C134.845 80.114 135.349 79.808 135.853 79.808C136.339 79.808 136.825 80.096 136.825 80.672C136.825 81.464 136.825 82.166 136.825 82.814C138.697 82.76 140.497 82.724 142.099 82.724C142.729 82.724 143.035 83.21 143.035 83.714C143.035 84.182 142.729 84.668 142.171 84.668C140.569 84.668 138.733 84.722 136.861 84.776C136.879 85.82 136.915 86.846 136.987 87.89C137.383 88.538 137.599 89.366 137.599 90.284C137.599 93.128 136.141 95.09 133.549 96.278C133.369 96.35 133.207 96.386 133.063 96.386C132.469 96.386 132.037 95.9 132.037 95.378C132.037 95.036 132.235 94.676 132.739 94.46C134.197 93.83 135.187 92.804 135.511 91.94ZM134.017 87.908C133.405 87.908 132.973 88.394 132.973 89.186C132.973 90.068 133.621 90.608 134.215 90.608C134.827 90.608 135.277 90.176 135.277 89.348C135.277 88.538 134.791 87.908 134.017 87.908ZM159.319 85.478L155.665 85.514C155.359 88.61 154.693 90.41 153.685 91.886C152.551 93.56 150.751 95.108 148.933 95.99C148.717 96.098 148.501 96.152 148.321 96.152C147.745 96.152 147.385 95.702 147.385 95.216C147.385 94.874 147.565 94.514 148.015 94.298C149.635 93.506 151.039 92.21 151.975 90.842C152.785 89.672 153.343 88.16 153.631 85.532L148.753 85.586C148.213 85.586 147.925 85.136 147.925 84.686C147.925 84.236 148.213 83.768 148.753 83.768L153.775 83.732C153.829 82.814 153.847 81.788 153.847 80.636C153.847 80.06 154.351 79.772 154.855 79.772C155.359 79.772 155.863 80.06 155.863 80.636C155.863 81.77 155.845 82.796 155.791 83.714L159.571 83.678C161.479 83.66 162.235 84.344 162.235 85.838C162.235 88.394 162.073 90.914 161.767 92.642C161.353 94.982 160.345 95.63 158.473 95.63C157.825 95.63 157.321 95.576 156.835 95.468C156.223 95.342 155.935 94.874 155.935 94.424C155.935 93.866 156.385 93.326 157.177 93.47C157.537 93.56 158.005 93.614 158.491 93.614C159.139 93.614 159.499 93.38 159.733 92.3C160.039 90.788 160.219 88.43 160.219 86.162C160.219 85.658 160.075 85.478 159.319 85.478ZM169.281 82.076C169.389 81.554 169.839 81.32 170.289 81.32C170.865 81.32 171.441 81.698 171.315 82.436C170.703 85.388 170.487 87.836 170.487 90.392C170.487 91.706 170.649 93.416 170.811 94.622C170.901 95.324 170.343 95.72 169.785 95.72C169.299 95.72 168.813 95.45 168.741 94.838C168.579 93.686 168.435 91.904 168.435 90.392C168.435 87.71 168.651 85.28 169.281 82.076ZM180.189 82.904C180.909 82.832 181.305 83.336 181.305 83.858C181.305 84.308 181.017 84.758 180.387 84.848C178.803 85.064 177.021 85.208 175.311 85.244C174.609 85.262 174.267 84.776 174.267 84.272C174.267 83.804 174.591 83.318 175.239 83.3C176.913 83.264 178.623 83.12 180.189 82.904ZM175.491 90.86C175.653 91.976 176.211 92.39 178.461 92.39C179.271 92.39 180.261 92.3 181.179 92.12C181.917 91.976 182.349 92.552 182.349 93.11C182.349 93.524 182.115 93.956 181.557 94.064C180.495 94.28 179.433 94.37 178.443 94.37C175.113 94.37 173.727 93.362 173.529 91.184C173.475 90.482 174.033 90.086 174.573 90.086C175.005 90.086 175.419 90.338 175.491 90.86ZM197.843 93.2C197.807 95.216 196.331 95.936 194.603 95.936C192.461 95.936 191.165 95 191.165 93.326C191.165 91.886 192.389 90.698 194.693 90.698C194.981 90.698 195.269 90.716 195.593 90.752C195.467 89.924 195.413 89.312 195.413 88.844C195.413 88.07 195.449 87.674 195.539 87.098C195.629 86.594 196.043 86.378 196.475 86.378C197.015 86.378 197.555 86.72 197.465 87.35C197.375 87.872 197.339 88.322 197.339 88.826C197.339 89.33 197.393 90.032 197.591 91.166C198.743 91.508 199.931 92.03 200.975 92.732C201.317 92.966 201.461 93.272 201.461 93.578C201.461 94.082 201.047 94.568 200.507 94.568C200.327 94.568 200.111 94.496 199.895 94.352C199.229 93.884 198.527 93.488 197.843 93.2ZM194.603 94.154C195.431 94.154 195.881 93.794 195.881 93.002C195.881 92.84 195.881 92.696 195.863 92.552C195.467 92.48 195.089 92.444 194.729 92.444C193.469 92.444 193.073 92.84 193.073 93.326C193.073 93.848 193.433 94.154 194.603 94.154ZM190.679 83.588C190.949 82.67 191.201 81.752 191.381 80.852C191.489 80.312 191.921 80.078 192.353 80.078C192.911 80.078 193.451 80.474 193.307 81.194C193.163 81.878 192.983 82.598 192.785 83.318C193.325 83.228 193.865 83.138 194.369 83.048C195.053 82.922 195.503 83.444 195.503 83.984C195.503 84.38 195.269 84.776 194.693 84.902C193.919 85.064 193.037 85.208 192.155 85.334C191.399 87.512 190.427 89.672 189.383 91.4C189.113 91.85 188.735 92.048 188.375 92.048C187.835 92.048 187.367 91.634 187.367 91.094C187.367 90.896 187.421 90.68 187.565 90.464C188.483 89.024 189.311 87.35 189.995 85.568C189.329 85.64 188.681 85.676 188.123 85.694C187.511 85.712 187.187 85.208 187.187 84.704C187.187 84.236 187.475 83.786 188.051 83.768C188.861 83.732 189.761 83.678 190.679 83.588ZM198.671 83.372C199.535 83.606 200.651 84.11 201.425 84.596C201.839 84.848 202.019 85.208 202.019 85.532C202.019 86.054 201.587 86.522 201.065 86.522C200.885 86.522 200.705 86.468 200.525 86.36C199.679 85.874 198.743 85.406 197.951 85.118C197.501 84.956 197.303 84.632 197.303 84.308C197.303 83.822 197.717 83.318 198.329 83.318C198.437 83.318 198.545 83.336 198.671 83.372ZM212.316 86.954L212.352 87.008C213.108 86.702 213.918 86.558 214.638 86.558C217.446 86.558 219.282 88.088 219.282 90.59C219.282 93.74 217.014 95.756 213.504 95.756C211.038 95.756 209.472 94.496 209.472 92.894C209.472 91.544 210.372 90.59 211.974 90.59C213.702 90.59 214.908 91.742 215.43 93.542C216.546 93.002 217.176 91.958 217.176 90.608C217.176 89.33 216.168 88.304 214.44 88.304C212.622 88.304 210.858 88.934 208.644 90.644C208.392 90.842 208.122 90.932 207.888 90.932C207.33 90.932 206.88 90.464 206.88 89.942C206.88 89.654 207.006 89.348 207.33 89.096C209.418 87.476 211.74 85.082 213.414 83.012C212.406 83.174 211.182 83.3 209.76 83.408C209.13 83.444 208.788 82.94 208.788 82.436C208.788 81.986 209.076 81.518 209.67 81.5C211.128 81.41 213.036 81.194 214.764 80.924C215.646 80.798 216.258 81.356 216.258 82.04C216.258 82.31 216.15 82.598 215.934 82.886C214.872 84.254 213.504 85.82 212.316 86.954ZM213.54 93.956C213.234 92.804 212.694 92.192 211.938 92.192C211.56 92.192 211.29 92.498 211.29 92.894C211.29 93.488 211.974 93.956 213.396 93.956C213.45 93.956 213.486 93.956 213.54 93.956ZM227.601 90.104C229.275 90.104 230.607 91.4 230.607 93.074C230.607 94.748 229.275 96.062 227.601 96.062C225.927 96.062 224.577 94.748 224.577 93.074C224.577 91.4 225.927 90.104 227.601 90.104ZM227.601 91.31C226.593 91.31 225.819 92.084 225.819 93.074C225.819 94.082 226.593 94.856 227.601 94.856C228.591 94.856 229.365 94.082 229.365 93.074C229.365 92.084 228.591 91.31 227.601 91.31Z" fill="#27272A"/>
<defs>
<clipPath id="clip0_1082_1185">
<rect width="128" height="32" fill="white" transform="translate(64)"/>
</clipPath>
</defs>
</svg>
