<svg width="256" height="82" viewBox="0 0 256 82" fill="none" xmlns="http://www.w3.org/2000/svg">
<g clip-path="url(#clip0_1082_1927)">
<path d="M136.59 57.5888C139.006 57.5955 142.214 57.6527 143.234 58.1408C145.082 59.0256 146.208 60.8223 146.208 62.8926C146.208 66.6061 142.498 70.1043 139.673 72.8724C139.1 73.4336 139.497 74.3742 140.299 74.3742H145.549C146.054 74.3742 146.464 74.7842 146.464 75.2899V76.5107C146.464 77.0164 146.054 77.4263 145.549 77.4263H134.561C134.056 77.4263 133.646 77.0164 133.646 76.5107V74.742C133.646 74.506 133.737 74.2791 133.9 74.1087L138.824 68.9682C139.85 67.8777 140.636 67.0119 141.183 66.3715C141.941 65.4879 142.696 64.4802 142.696 63.256C142.696 60.6808 138.99 60.7859 136.59 60.8504C136.52 60.8523 136.451 60.8455 136.385 60.8319C136.39 60.869 136.393 60.9068 136.393 60.9452V63.0816C136.393 63.5873 135.983 63.9972 135.477 63.9972H133.951C133.445 63.9972 133.035 63.5873 133.035 63.0816V60.9452C133.035 60.4395 133.445 60.0295 133.951 60.0295H135.477C135.547 60.0295 135.615 60.0379 135.681 60.0528C135.677 60.0197 135.675 59.9861 135.675 59.952V58.5035C135.675 57.9979 136.085 57.5874 136.59 57.5888Z" fill="#10213D"/>
<path d="M186.853 57.5876C187.359 57.5877 187.768 57.9976 187.769 58.5032V60.0492C187.769 60.2679 187.69 60.4793 187.548 60.6453L184.829 63.8151C184.359 64.3622 184.681 65.2341 185.34 65.525C185.497 65.5943 185.65 65.6703 185.798 65.7531C186.674 66.2416 187.357 66.9136 187.848 67.7685C188.338 68.6234 188.583 69.6268 188.583 70.7782C188.583 73.2108 187.279 75.3838 185.142 76.536C183.328 77.5135 181.256 77.4444 179.244 77.4096C178.738 77.4009 178.328 76.9897 178.328 76.4839V75.0136C178.328 75.0009 178.328 74.9882 178.329 74.9757C178.289 74.9811 178.248 74.9844 178.206 74.9844H176.069C175.564 74.9844 175.154 74.5744 175.154 74.0687V72.5427C175.154 72.0371 175.564 71.6271 176.069 71.6271H178.206C178.711 71.6271 179.121 72.0371 179.121 72.5427V74.0687C179.121 74.0834 179.121 74.0981 179.12 74.1125C179.16 74.1076 179.201 74.1052 179.243 74.1057C180.744 74.1234 182.621 74.1411 183.329 73.7883C184.966 72.9729 185.541 70.7026 184.564 69.1556C183.772 67.7753 181.896 67.38 180.368 67.7438C179.871 67.8621 179.313 67.6785 179.093 67.2174L178.941 66.9012C178.783 66.5701 178.837 66.1764 179.08 65.9009L182.411 62.118C182.931 61.5266 182.511 60.5973 181.723 60.5973H176.68C176.174 60.5973 175.764 60.1874 175.764 59.6817V58.5032C175.764 57.9976 176.174 57.5876 176.68 57.5876H186.853Z" fill="#10213D"/>
<path fill-rule="evenodd" clip-rule="evenodd" d="M165.387 57.5739C165.893 57.5739 166.303 57.9838 166.303 58.4895V60.0155C166.303 60.1226 166.284 60.2252 166.25 60.3207H167.524C168.029 60.3207 168.439 60.7307 168.439 61.2364V74.055C168.439 74.5607 168.029 74.9706 167.524 74.9706H166.303V76.4967C166.303 77.0023 165.893 77.4123 165.387 77.4123H156.841C156.336 77.4123 155.926 77.0023 155.926 76.4967V74.9706C155.926 74.9526 155.926 74.9345 155.927 74.9167C155.831 74.9509 155.728 74.9706 155.621 74.9706H154.094C153.589 74.9706 153.179 74.5607 153.179 74.055V61.2364C153.179 60.7307 153.589 60.3207 154.094 60.3207H155.621C155.763 60.3207 155.897 60.3541 156.017 60.4119C155.959 60.2919 155.926 60.1577 155.926 60.0155V58.4895C155.926 57.9838 156.336 57.5739 156.841 57.5739H165.387ZM156.445 60.8396C156.503 60.9597 156.536 61.0941 156.536 61.2364V74.055C156.536 74.073 156.535 74.0909 156.534 74.1087C156.63 74.0745 156.734 74.055 156.841 74.055H165.082V61.2364C165.082 61.1293 165.101 61.0267 165.135 60.9312H156.841C156.699 60.9312 156.565 60.8975 156.445 60.8396Z" fill="#10213D"/>
<path fill-rule="evenodd" clip-rule="evenodd" d="M207.506 57.5739C208.011 57.5739 208.421 57.9838 208.421 58.4895V60.0155C208.421 60.1226 208.402 60.2252 208.368 60.3207H209.642C210.148 60.3207 210.558 60.7307 210.558 61.2364V74.055C210.558 74.5607 210.148 74.9706 209.642 74.9706H208.421V76.4967C208.421 77.0023 208.011 77.4123 207.506 77.4123H198.96C198.454 77.4123 198.044 77.0023 198.044 76.4967V74.9706C198.044 74.9526 198.045 74.9345 198.046 74.9167C197.95 74.9509 197.847 74.9706 197.739 74.9706H196.213C195.707 74.9706 195.297 74.5607 195.297 74.055V61.2364C195.297 60.7307 195.707 60.3207 196.213 60.3207H197.739C197.881 60.3207 198.015 60.3541 198.135 60.4119C198.078 60.2919 198.044 60.1577 198.044 60.0155V58.4895C198.044 57.9838 198.454 57.5739 198.96 57.5739H207.506ZM198.563 60.8396C198.621 60.9597 198.655 61.0941 198.655 61.2364V74.055C198.655 74.073 198.654 74.0909 198.653 74.1087C198.749 74.0745 198.852 74.055 198.96 74.055H207.2V61.2364C207.2 61.1293 207.22 61.0267 207.253 60.9312H198.96C198.818 60.9312 198.684 60.8975 198.563 60.8396Z" fill="#10213D"/>
<path fill-rule="evenodd" clip-rule="evenodd" d="M146.985 30.7402C147.49 30.7402 147.9 31.1501 147.9 31.6558V37.1399C147.9 37.6456 147.49 38.0556 146.985 38.0556H143.49C142.967 38.0556 142.548 38.4934 142.572 39.0162C142.586 39.3296 142.602 39.6569 142.62 39.9518C142.647 40.4103 143.029 40.7515 143.489 40.7515H148.393C148.899 40.7515 149.309 41.1614 149.309 41.6671V42.4921C149.309 42.9978 148.899 43.4077 148.393 43.4077H144.54C143.878 43.4077 143.434 44.0892 143.758 44.6658C144.278 45.5912 144.862 46.3443 145.818 47.6144C145.833 47.6343 145.866 47.6689 145.885 47.6857C146.055 47.8409 146.289 47.7637 146.39 47.556C146.687 46.9408 146.821 46.2393 146.918 45.54C147.004 44.9236 147.654 44.5753 148.211 44.8536L149.027 45.2616C149.396 45.4464 149.599 45.8562 149.507 46.2592C149.251 47.3946 148.914 48.4763 148.315 49.5032C147.891 50.2282 147.232 50.7186 146.372 50.7187C144.638 50.7186 143.36 48.9732 142.575 47.6353C141.603 45.9778 141.449 45.884 140.627 43.9689C140.481 43.6304 140.149 43.4077 139.78 43.4077H135.97C135.464 43.4077 135.055 43.8176 135.055 44.3233V46.9057C135.055 47.4113 135.464 47.8213 135.97 47.8213H136.393C136.5 47.8213 136.603 47.8408 136.699 47.8749C136.698 47.8574 136.698 47.8396 136.698 47.8219V46.5999C136.698 46.0946 137.107 45.6848 137.613 45.6848H140.361C140.866 45.6848 141.276 46.0946 141.276 46.5999V47.8219C141.276 48.3272 140.866 48.7369 140.361 48.7369H137.613C137.505 48.7369 137.402 48.7173 137.306 48.6833C137.307 48.701 137.308 48.7189 137.308 48.7369V49.9577C137.308 50.4634 136.898 50.8733 136.393 50.8733H130.594C130.088 50.8733 129.678 50.4634 129.678 49.9577V48.7369C129.678 48.2312 130.088 47.8213 130.594 47.8213H131.438C131.944 47.8213 132.354 47.4113 132.354 46.9057V31.6558C132.354 31.1501 132.764 30.7402 133.27 30.7402H146.985ZM135.97 38.0556C135.464 38.0556 135.055 38.4655 135.055 38.9712V39.8358C135.055 40.3415 135.464 40.7515 135.97 40.7515H138.938C139.489 40.7515 139.924 40.2676 139.892 39.7178C139.877 39.4498 139.863 39.1739 139.852 38.919C139.829 38.4342 139.432 38.0556 138.947 38.0556H135.97ZM135.97 33.3076C135.464 33.3076 135.055 33.7175 135.055 34.2232V34.5725C135.055 35.0782 135.464 35.4881 135.97 35.4881H144.284C144.789 35.4881 145.199 35.0782 145.199 34.5725V34.2232C145.199 33.7175 144.789 33.3076 144.284 33.3076H135.97Z" fill="#10213D"/>
<path d="M168.744 34.087C169.25 34.087 169.66 34.4969 169.66 35.0026V36.2234C169.66 36.7291 169.25 37.1391 168.744 37.1391H163.251C162.745 37.1391 162.335 37.549 162.335 38.0547V39.8859C162.335 40.3916 162.745 40.8015 163.251 40.8015H167.829C168.334 40.8015 168.744 41.2115 168.744 41.7172V42.938C168.744 43.4437 168.334 43.8536 167.829 43.8536H163.251C162.745 43.8536 162.335 44.2635 162.335 44.7692V46.9057C162.335 47.4113 162.745 47.8213 163.251 47.8213H168.744C169.25 47.8213 169.66 48.2312 169.66 48.7369V49.9577C169.66 50.4634 169.25 50.8733 168.744 50.8733H152.874C152.368 50.8733 151.958 50.4634 151.958 49.9577V48.7369C151.958 48.2312 152.368 47.8213 152.874 47.8213H158.367C158.873 47.8213 159.283 47.4113 159.283 46.9057V44.7692C159.283 44.2635 158.873 43.8536 158.367 43.8536H154.094C153.589 43.8536 153.179 43.4437 153.179 42.938V41.7172C153.179 41.2115 153.589 40.8015 154.094 40.8015H158.367C158.873 40.8015 159.283 40.3916 159.283 39.8859V38.0547C159.283 37.549 158.873 37.1391 158.367 37.1391H153.179C152.673 37.1391 152.263 36.7291 152.263 36.2234V35.0026C152.263 34.4969 152.673 34.087 153.179 34.087H168.744Z" fill="#10213D"/>
<path d="M189.804 34.087C190.309 34.087 190.719 34.4969 190.719 35.0026V36.2234C190.719 36.7291 190.309 37.1391 189.804 37.1391H184.31C183.804 37.1391 183.394 37.549 183.394 38.0547V39.8859C183.394 40.3916 183.804 40.8015 184.31 40.8015H188.888C189.394 40.8015 189.804 41.2115 189.804 41.7172V42.938C189.804 43.4437 189.394 43.8536 188.888 43.8536H184.31C183.804 43.8536 183.394 44.2635 183.394 44.7692V46.9057C183.394 47.4113 183.804 47.8213 184.31 47.8213H189.804C190.309 47.8213 190.719 48.2312 190.719 48.7369V49.9577C190.719 50.4634 190.309 50.8733 189.804 50.8733H173.933C173.427 50.8733 173.017 50.4634 173.017 49.9577V48.7369C173.017 48.2312 173.427 47.8213 173.933 47.8213H179.427C179.932 47.8213 180.342 47.4113 180.342 46.9057V44.7692C180.342 44.2635 179.932 43.8536 179.427 43.8536H175.154C174.648 43.8536 174.238 43.4437 174.238 42.938V41.7172C174.238 41.2115 174.648 40.8015 175.154 40.8015H179.427C179.932 40.8015 180.342 40.3916 180.342 39.8859V38.0547C180.342 37.549 179.932 37.1391 179.427 37.1391H174.238C173.732 37.1391 173.323 36.7291 173.323 36.2234V35.0026C173.323 34.4969 173.732 34.087 174.238 34.087H189.804Z" fill="#10213D"/>
<path d="M200.185 30.7297C200.523 30.7297 200.796 31.003 200.796 31.3401V31.8489C200.796 32.186 201.069 32.4593 201.406 32.4593H203.238C203.575 32.4593 203.848 32.186 203.848 31.8489V31.3401C203.848 31.003 204.121 30.7297 204.458 30.7297H206.595C206.932 30.7297 207.205 31.003 207.205 31.3401V31.8489C207.205 32.186 207.478 32.4593 207.816 32.4593H209.547C209.884 32.4593 210.158 32.7326 210.158 33.0697V33.9552C210.158 34.2924 209.884 34.5657 209.547 34.5657H204.167C203.921 34.5657 203.722 34.7652 203.722 35.0113C203.722 35.2573 203.921 35.4568 204.167 35.4568H207.571C207.908 35.4568 208.182 35.7301 208.182 36.0673V36.9096C208.182 37.2467 207.908 37.52 207.571 37.52H204.167C203.921 37.52 203.722 37.7195 203.722 37.9656C203.722 38.2117 203.921 38.4111 204.167 38.4111H208.181C208.518 38.4111 208.791 38.6844 208.791 39.0216V40.0191C208.791 40.355 208.52 40.6277 208.184 40.6296L206.037 40.6412C205.868 40.6421 205.733 40.7808 205.737 40.9491C205.748 41.1573 205.761 41.2709 205.775 41.3622C205.825 41.6701 206.097 41.9037 206.408 41.9037H210.295C210.632 41.9037 210.906 42.177 210.906 42.5141V43.5177C210.906 43.8548 210.632 44.1281 210.295 44.1281H206.866C206.476 44.1282 206.186 44.49 206.306 44.8613C206.353 45.0084 206.405 45.1541 206.459 45.2989C206.582 45.6207 206.957 45.7558 207.25 45.5766C207.355 45.5127 207.466 45.4414 207.573 45.3653C207.892 45.1382 208.392 45.0975 208.675 45.3689L209.188 45.8613C209.461 46.1237 209.433 46.5706 209.134 46.8034C208.972 46.93 208.78 47.0813 208.566 47.2535C208.273 47.4892 208.266 47.935 208.57 48.156C208.649 48.2136 208.73 48.2696 208.812 48.3232C209.063 48.4876 209.392 48.3807 209.503 48.1015C209.622 47.8041 209.96 47.6599 210.265 47.7557C210.635 47.8717 211.02 47.9515 211.403 48.0192C211.765 48.083 211.995 48.4452 211.855 48.7852C211.789 48.9451 211.716 49.1073 211.636 49.2716C211.445 49.6637 211.254 49.9807 211.063 50.2227C210.504 51.0185 209.206 50.817 208.441 50.4981C207.692 50.1792 207.014 49.8026 206.43 49.3685C206.219 49.212 205.935 49.1896 205.707 49.3199C204.845 49.8137 203.931 50.2268 202.996 50.5661C202.75 50.6554 202.479 50.5726 202.342 50.35C202.18 50.0894 201.965 49.732 201.783 49.4263C201.589 49.1014 201.736 48.6809 202.09 48.5464L203.96 47.8356C204.332 47.6943 204.471 47.2402 204.28 46.8917C203.915 46.227 203.625 45.4668 203.411 44.6112C203.34 44.3311 203.093 44.1281 202.804 44.1281H200.151C200.006 44.1282 199.889 44.2457 199.889 44.3907C199.889 44.554 200.036 44.6781 200.197 44.6497L201.155 44.4807C201.487 44.4222 201.804 44.6437 201.863 44.9758L202.074 46.1763C202.132 46.5083 201.911 46.8248 201.579 46.8833L200.393 47.0925C200.101 47.144 199.889 47.3974 199.889 47.6937L199.889 50.2629C199.889 50.6 199.616 50.8733 199.278 50.8733H196.535C196.198 50.8733 195.924 50.6001 195.924 50.2629V49.0439C195.924 48.7068 196.198 48.4335 196.535 48.4335H196.898C197.096 48.4334 197.257 48.2725 197.257 48.074C197.257 47.8505 197.055 47.6811 196.835 47.7199L194.95 48.0523C194.618 48.1108 194.301 47.8892 194.242 47.5572L194.031 46.3569C193.972 46.025 194.194 45.7082 194.526 45.6497L196.79 45.2503C197.06 45.2026 197.257 44.9679 197.257 44.6935C197.257 44.3813 197.004 44.1281 196.692 44.1281H193.771C193.434 44.1281 193.161 43.8548 193.161 43.5177V42.5141C193.161 42.177 193.434 41.9037 193.771 41.9037H196.666C196.993 41.9037 197.257 41.6393 197.257 41.313C197.257 40.9867 196.993 40.722 196.666 40.722H195.011C194.674 40.722 194.4 40.4487 194.4 40.1115V38.8925C194.4 38.5554 194.674 38.2821 195.011 38.2821H199.279C199.616 38.2821 199.889 38.5554 199.889 38.8925V40.7217L199.889 40.7225V41.313C199.889 41.6392 200.153 41.9037 200.479 41.9037H202.345C202.71 41.9037 202.986 41.5462 202.945 41.183C202.909 40.8671 202.647 40.6603 202.329 40.662L201.58 40.6662C201.241 40.668 200.966 40.3942 200.966 40.0558V38.1304C200.966 37.7933 200.693 37.52 200.356 37.52H196.972C196.634 37.52 196.361 37.2467 196.361 36.9096V36.0673C196.361 35.7301 196.634 35.4568 196.972 35.4568H200.52C200.767 35.4568 200.966 35.2573 200.966 35.0113C200.966 34.7652 200.767 34.5657 200.52 34.5657H195.141C194.803 34.5657 194.53 34.2924 194.53 33.9552V33.0697C194.53 32.7326 194.803 32.4593 195.141 32.4593H196.828C197.165 32.4593 197.439 32.186 197.439 31.8489V31.3401C197.439 31.003 197.712 30.7297 198.049 30.7297H200.185Z" fill="#10213D"/>
<path d="M212.084 37.7495C212.589 37.7495 212.999 38.1594 212.999 38.6651V40.1911C212.999 40.6968 212.589 41.1067 212.084 41.1067H210.558C210.052 41.1067 209.642 40.6968 209.642 40.1911V38.6651C209.642 38.1594 210.052 37.7495 210.558 37.7495H212.084Z" fill="#10213D"/>
<path d="M161.725 29.5089C162.231 29.5089 162.64 29.9186 162.64 30.4239V31.9511C162.64 32.4564 162.231 32.8662 161.725 32.8662H160.198C159.693 32.8662 159.283 32.4564 159.283 31.9511V30.4239C159.283 29.9186 159.693 29.5089 160.198 29.5089H161.725Z" fill="#10213D"/>
<path d="M182.785 29.5089C183.29 29.5089 183.7 29.9186 183.7 30.4239V31.9511C183.7 32.4564 183.29 32.8662 182.785 32.8662H181.257C180.752 32.8662 180.342 32.4564 180.342 31.9511V30.4239C180.342 29.9186 180.752 29.5089 181.257 29.5089H182.785Z" fill="#10213D"/>
<path d="M197.874 4.17676C198.379 4.17686 198.789 4.58657 198.789 5.09178V11.4928C198.789 15.0247 198.36 17.5392 197.681 19.4696C196.998 21.4098 196.075 22.7188 195.156 23.8447C194.876 24.1868 194.341 24.1436 194.12 23.7612L193.319 22.3738C193.299 22.339 193.281 22.3027 193.266 22.2653L193.192 22.0751C193.132 21.9225 193.161 21.7496 193.265 21.6236C194.103 20.5986 194.769 19.5148 195.241 18.0747C195.749 16.5264 196.044 14.5274 196.044 11.6925V5.09178C196.044 4.5865 196.453 4.17676 196.959 4.17676H197.874Z" fill="#10213D"/>
<path d="M146.77 10.2809C147.275 10.2809 147.685 10.6908 147.685 11.1965V12.4173C147.685 12.923 147.275 13.333 146.77 13.333H143.717C143.212 13.333 142.802 13.7429 142.802 14.2486V16.9954C142.802 17.5011 142.392 17.911 141.886 17.911H140.665V20.6585C140.665 21.1638 140.256 21.5735 139.75 21.5735H138.224V23.1002C138.224 23.6054 137.814 24.0152 137.309 24.0152H133.95C133.445 24.0152 133.035 23.6054 133.035 23.1002V21.5729C133.035 21.0676 133.445 20.6579 133.95 20.6579H137.308V17.9105C137.308 17.4052 137.718 16.9954 138.223 16.9954H139.445V14.2486C139.445 13.7429 139.035 13.333 138.529 13.333H132.12C131.614 13.333 131.204 12.923 131.204 12.4173V11.1965C131.204 10.6908 131.614 10.2809 132.12 10.2809H146.77Z" fill="#10213D"/>
<path fill-rule="evenodd" clip-rule="evenodd" d="M190.92 4.17676C191.371 4.17682 191.724 4.56673 191.678 5.01578C191.501 6.76682 190.615 11.702 188.467 16.1192C187.895 17.1093 187.56 17.677 187.101 18.0005C186.757 18.2433 186.449 18.584 186.449 19.0052V20.3527C186.449 20.8584 186.039 21.2683 185.533 21.2683H182.733C182.767 21.3639 182.786 21.4664 182.786 21.5735V23.0996C182.786 23.6052 182.376 24.0152 181.871 24.0152H178.513C178.008 24.0152 177.598 23.6052 177.598 23.0996V21.5735C177.598 21.0679 178.008 20.6579 178.513 20.6579H181.313C181.279 20.5624 181.26 20.4598 181.26 20.3527V18.8267C181.26 18.321 181.67 17.9111 182.176 17.911H183.961C184.398 17.911 184.774 17.6022 184.859 17.1737L185.127 15.8268C185.186 15.5264 185.093 15.2149 184.87 15.0047C183.564 13.7714 182.069 12.7115 180.868 11.9276C180.489 11.6806 179.991 11.759 179.676 12.0841C179.269 12.506 178.763 12.9732 178.095 13.4864C177.76 13.7431 177.281 13.6799 177.025 13.3455L176.226 12.3026C175.972 11.9702 176.033 11.4945 176.363 11.2373C179.114 9.09536 180.182 6.84473 181.048 4.65841C181.163 4.36771 181.444 4.17677 181.757 4.17676H190.92ZM183.763 6.92183C183.402 6.92184 183.076 7.13602 182.918 7.4616C182.726 7.85865 182.535 8.21322 182.347 8.53757C182.094 8.974 182.21 9.53753 182.628 9.8198C183.917 10.6895 184.967 11.4662 185.827 12.1711C186.292 12.5528 187.003 12.4238 187.24 11.8704C187.681 10.8389 188.075 9.60999 188.383 7.97008C188.487 7.42009 188.056 6.92183 187.497 6.92183H183.763Z" fill="#10213D"/>
<path d="M203.53 4.17676C204.036 4.17686 204.446 4.58676 204.446 5.09238V19.7327C204.446 20.2384 204.856 20.6484 205.362 20.6484H206.277C206.383 20.6484 206.484 20.6669 206.578 20.6996V18.5209C206.578 18.0156 206.987 17.6059 207.493 17.6058H209.018V13.9428C209.018 13.4375 209.427 13.0278 209.932 13.0277H211.46C211.965 13.0278 212.375 13.4375 212.375 13.9428V17.6064C212.375 18.1117 211.965 18.5214 211.46 18.5215H209.935V20.9637C209.935 21.469 209.525 21.8787 209.02 21.8787H207.493C207.388 21.8787 207.287 21.86 207.193 21.8275V23.09C207.193 23.5956 206.783 24.0055 206.277 24.0056H204.451C204.448 24.0056 204.446 24.0078 204.446 24.0104C204.446 24.013 204.444 24.0151 204.441 24.0152H202.31C201.804 24.0152 201.394 23.6052 201.394 23.0996V5.09238C201.394 4.58669 201.804 4.17676 202.31 4.17676H203.53Z" fill="#10213D"/>
<path d="M171.018 9.97568C171.623 9.9757 172.063 10.553 171.894 11.1342C171.113 13.8106 170.166 16.4278 168.406 18.6174C166.332 21.197 163.197 23.1102 158.113 23.9898C157.7 24.0613 157.307 23.7867 157.232 23.3747L156.966 21.9091C156.889 21.4859 157.177 21.0827 157.602 21.0183C160.838 20.5279 163.244 19.7064 165.13 17.9382C166.736 16.4313 168.036 14.1706 169.089 10.6451C169.206 10.2509 169.566 9.97568 169.977 9.97568H171.018Z" fill="#10213D"/>
<path d="M156.671 10.5318C156.818 10.1486 157.241 9.94958 157.629 10.0815C160.072 10.9111 161.312 11.684 163.051 12.8582C163.36 13.0668 163.473 13.4683 163.318 13.8075L162.741 15.0727C162.542 15.508 161.996 15.6553 161.606 15.3791C159.816 14.1134 159.081 13.6003 156.663 12.7443C156.259 12.6013 156.052 12.1534 156.205 11.753L156.671 10.5318Z" fill="#10213D"/>
<path d="M158.053 5.34453C158.203 4.97296 158.615 4.78091 158.996 4.9049C161.828 5.82563 163.385 6.89406 164.459 7.58738C164.78 7.79494 164.898 8.20891 164.734 8.55486L164.135 9.82039C163.932 10.2485 163.392 10.3904 163.005 10.1173C161.54 9.08264 160.398 8.38369 158.028 7.50005C157.625 7.34998 157.426 6.89746 157.586 6.49919L158.053 5.34453Z" fill="#10213D"/>
<path d="M149.212 4.17676C149.717 4.17676 150.127 4.5865 150.127 5.09178V6.61901C150.127 7.12428 149.717 7.53403 149.212 7.53403H147.685C147.179 7.53403 146.77 7.12428 146.77 6.61901V5.09178C146.77 4.5865 147.179 4.17676 147.685 4.17676H149.212Z" fill="#10213D"/>
<path d="M153.79 4.17676C154.295 4.17676 154.705 4.5865 154.705 5.09178V6.61901C154.705 7.12428 154.295 7.53403 153.79 7.53403H152.263C151.757 7.53403 151.348 7.12428 151.348 6.61901V5.09178C151.348 4.5865 151.757 4.17676 152.263 4.17676H153.79Z" fill="#10213D"/>
<path d="M169.69 4.17676C170.196 4.17677 170.605 4.58651 170.605 5.09178V6.61901C170.605 7.12427 170.196 7.53401 169.69 7.53403H168.163C167.658 7.53398 167.248 7.12425 167.248 6.61901V5.09178C167.248 4.58654 167.658 4.17681 168.163 4.17676H169.69Z" fill="#10213D"/>
<path d="M174.269 4.17676C174.774 4.17677 175.184 4.58651 175.184 5.09178V6.61901C175.184 7.12427 174.774 7.53401 174.269 7.53403H172.741C172.236 7.53398 171.826 7.12425 171.826 6.61901V5.09178C171.826 4.58654 172.236 4.17681 172.741 4.17676H174.269Z" fill="#10213D"/>
<path d="M143.718 4.17676C144.223 4.17676 144.633 4.5865 144.633 5.09178V6.3138C144.633 6.81908 144.223 7.22882 143.718 7.22882H133.645C133.14 7.22882 132.73 6.81908 132.73 6.3138V5.09178C132.73 4.5865 133.14 4.17676 133.645 4.17676H143.718Z" fill="#10213D"/>
<path fill-rule="evenodd" clip-rule="evenodd" d="M43 9.05146C43 3.5811 48.0684 -0.481183 53.4077 0.710739L88.5166 8.54894C93.3792 9.37054 100.454 11.8862 106.41 16.8864C112.525 22.0197 117.47 29.8051 117.47 40.8034V40.8299L117.467 41.285L117.467 41.2972V41.3095C117.316 52.1344 112.347 59.7909 106.268 64.839C100.343 69.7592 93.3424 72.2418 88.5166 73.0572L53.4077 80.8957C48.1521 82.0689 43.1585 78.1514 43.0036 72.8107L43 72.5553V9.05146Z" fill="#10213D"/>
<path d="M84.1454 66.3681C84.145 68.6548 82.5578 70.635 80.3261 71.1333L52.6097 77.3212C49.5588 78.0023 46.6624 75.6813 46.6624 72.5553V9.0515C46.6624 5.92545 49.5588 3.6042 52.6097 4.28533L80.3347 10.4751C82.5671 10.9735 84.1544 12.9546 84.154 15.2419L84.1454 66.3681Z" fill="white"/>
<rect width="4.7604" height="4.7604" rx="0.915619" transform="matrix(-1 0 0 1 80.7244 38.3496)" fill="#10213D"/>
<path d="M113.869 41.2181C113.634 58.0429 100.412 65.9701 91.3641 68.6154C89.5565 69.1439 87.8652 67.7128 87.8652 65.8295V15.6964C87.8652 13.8131 89.556 12.3819 91.3636 12.9103C100.493 15.5792 113.872 23.6254 113.872 40.7629L113.869 41.2181Z" fill="url(#paint0_linear_1082_1927)"/>
<path d="M93.0421 65.1663C93.3792 65.1663 93.6525 65.4396 93.6525 65.7767V66.9975C93.6525 67.3346 93.3792 67.6079 93.0421 67.6079H91.8213C91.4842 67.6079 91.2109 67.3346 91.2109 66.9975V65.7767C91.2109 65.4396 91.4842 65.1663 91.8213 65.1663H93.0421Z" fill="white"/>
<path d="M88.7692 65.1663C89.1064 65.1663 89.3796 65.4396 89.3796 65.7767V66.9975C89.3796 67.3346 89.1064 67.6079 88.7692 67.6079H88.4441C88.0828 67.1188 87.8652 66.5031 87.8652 65.8289V65.1663H88.7692Z" fill="white"/>
<path d="M97.315 65.1663C97.6521 65.1663 97.9254 65.4396 97.9254 65.7767V65.9767C97.1109 66.3987 96.2986 66.7808 95.4972 67.1248C95.4885 67.0837 95.4838 67.0412 95.4838 66.9975V65.7767C95.4838 65.4396 95.7571 65.1663 96.0942 65.1663H97.315Z" fill="white"/>
<path d="M93.0421 60.8934C93.3792 60.8934 93.6525 61.1667 93.6525 61.5038V62.7246C93.6525 63.0618 93.3792 63.335 93.0421 63.335H91.8213C91.4842 63.335 91.2109 63.0618 91.2109 62.7246V61.5038C91.2109 61.1667 91.4842 60.8934 91.8213 60.8934H93.0421Z" fill="white"/>
<path d="M97.315 60.8934C97.6521 60.8934 97.9254 61.1667 97.9254 61.5038V62.7246C97.9254 63.0618 97.6521 63.335 97.315 63.335H96.0942C95.7571 63.335 95.4838 63.0618 95.4838 62.7246V61.5038C95.4838 61.1667 95.7571 60.8934 96.0942 60.8934H97.315Z" fill="white"/>
<path d="M101.588 60.8934C101.925 60.8934 102.198 61.1667 102.198 61.5038V62.7246C102.198 63.0618 101.925 63.335 101.588 63.335H100.367C100.03 63.335 99.7567 63.0618 99.7567 62.7246V61.5038C99.7567 61.1667 100.03 60.8934 100.367 60.8934H101.588Z" fill="white"/>
<path d="M88.7692 60.8934C89.1064 60.8934 89.3796 61.1667 89.3796 61.5038V62.7246C89.3796 63.0618 89.1064 63.335 88.7692 63.335H87.8652V60.8934H88.7692Z" fill="white"/>
<path d="M105.232 60.8934C104.838 61.2582 104.437 61.6099 104.03 61.9491V61.5038C104.03 61.1667 104.303 60.8934 104.64 60.8934H105.232Z" fill="white"/>
<path d="M93.0421 56.6205C93.3792 56.6205 93.6525 56.8938 93.6525 57.2309V58.4517C93.6525 58.7889 93.3792 59.0622 93.0421 59.0622H91.8213C91.4842 59.0622 91.2109 58.7889 91.2109 58.4517V57.2309C91.2109 56.8938 91.4842 56.6205 91.8213 56.6205H93.0421Z" fill="white"/>
<path d="M97.315 56.6205C97.6521 56.6205 97.9254 56.8938 97.9254 57.2309V58.4517C97.9254 58.7889 97.6521 59.0622 97.315 59.0622H96.0942C95.7571 59.0622 95.4838 58.7889 95.4838 58.4517V57.2309C95.4838 56.8938 95.7571 56.6205 96.0942 56.6205H97.315Z" fill="white"/>
<path d="M101.588 56.6205C101.925 56.6205 102.198 56.8938 102.198 57.2309V58.4517C102.198 58.7889 101.925 59.0622 101.588 59.0622H100.367C100.03 59.0622 99.7567 58.7889 99.7567 58.4517V57.2309C99.7567 56.8938 100.03 56.6205 100.367 56.6205H101.588Z" fill="white"/>
<path d="M105.861 56.6205C106.198 56.6205 106.471 56.8938 106.471 57.2309V58.4517C106.471 58.7889 106.198 59.0622 105.861 59.0622H104.64C104.303 59.0622 104.03 58.7889 104.03 58.4517V57.2309C104.03 56.8938 104.303 56.6205 104.64 56.6205H105.861Z" fill="white"/>
<path d="M88.7692 56.6205C89.1064 56.6205 89.3796 56.8938 89.3796 57.2309V58.4517C89.3796 58.7889 89.1064 59.0622 88.7692 59.0622H87.8652V56.6205H88.7692Z" fill="white"/>
<path d="M109.003 56.6205C108.776 56.9406 108.542 57.254 108.302 57.5606V57.2309C108.302 56.8938 108.576 56.6205 108.913 56.6205H109.003Z" fill="white"/>
<path d="M93.0421 52.3476C93.3792 52.3476 93.6525 52.6209 93.6525 52.958V54.1789C93.6525 54.516 93.3792 54.7893 93.0421 54.7893H91.8213C91.4842 54.7893 91.2109 54.516 91.2109 54.1789V52.958C91.2109 52.6209 91.4842 52.3476 91.8213 52.3476H93.0421Z" fill="white"/>
<path d="M97.315 52.3476C97.6521 52.3476 97.9254 52.6209 97.9254 52.958V54.1789C97.9254 54.516 97.6521 54.7893 97.315 54.7893H96.0942C95.7571 54.7893 95.4838 54.516 95.4838 54.1789V52.958C95.4838 52.6209 95.7571 52.3476 96.0942 52.3476H97.315Z" fill="white"/>
<path d="M101.588 52.3476C101.925 52.3476 102.198 52.6209 102.198 52.958V54.1789C102.198 54.516 101.925 54.7893 101.588 54.7893H100.367C100.03 54.7893 99.7567 54.516 99.7567 54.1789V52.958C99.7567 52.6209 100.03 52.3476 100.367 52.3476H101.588Z" fill="white"/>
<path d="M105.861 52.3476C106.198 52.3476 106.471 52.6209 106.471 52.958V54.1789C106.471 54.516 106.198 54.7893 105.861 54.7893H104.64C104.303 54.7893 104.03 54.516 104.03 54.1789V52.958C104.03 52.6209 104.303 52.3476 104.64 52.3476H105.861Z" fill="white"/>
<path d="M110.134 52.3476C110.471 52.3476 110.744 52.6209 110.744 52.958V53.8146C110.568 54.1442 110.386 54.468 110.197 54.7857C110.176 54.7879 110.155 54.7893 110.134 54.7893H108.913C108.576 54.7893 108.302 54.516 108.302 54.1789V52.958C108.302 52.6209 108.576 52.3476 108.913 52.3476H110.134Z" fill="white"/>
<path d="M88.7692 52.3476C89.1064 52.3476 89.3796 52.6209 89.3796 52.958V54.1789C89.3796 54.516 89.1064 54.7893 88.7692 54.7893H87.8652V52.3476H88.7692Z" fill="white"/>
<path d="M93.0421 48.0747C93.3792 48.0747 93.6525 48.348 93.6525 48.6851V49.906C93.6525 50.2431 93.3792 50.5164 93.0421 50.5164H91.8213C91.4842 50.5164 91.2109 50.2431 91.2109 49.906V48.6851C91.2109 48.348 91.4842 48.0747 91.8213 48.0747H93.0421Z" fill="white"/>
<path d="M97.315 48.0747C97.6521 48.0747 97.9254 48.348 97.9254 48.6851V49.906C97.9254 50.2431 97.6521 50.5164 97.315 50.5164H96.0942C95.7571 50.5164 95.4838 50.2431 95.4838 49.906V48.6851C95.4838 48.348 95.7571 48.0747 96.0942 48.0747H97.315Z" fill="white"/>
<path d="M101.588 48.0747C101.925 48.0747 102.198 48.348 102.198 48.6851V49.906C102.198 50.2431 101.925 50.5164 101.588 50.5164H100.367C100.03 50.5164 99.7567 50.2431 99.7567 49.906V48.6851C99.7567 48.348 100.03 48.0747 100.367 48.0747H101.588Z" fill="white"/>
<path d="M105.861 48.0747C106.198 48.0747 106.471 48.348 106.471 48.6851V49.906C106.471 50.2431 106.198 50.5164 105.861 50.5164H104.64C104.303 50.5164 104.03 50.2431 104.03 49.906V48.6851C104.03 48.348 104.303 48.0747 104.64 48.0747H105.861Z" fill="white"/>
<path d="M110.134 48.0747C110.471 48.0747 110.744 48.348 110.744 48.6851V49.906C110.744 50.2431 110.471 50.5164 110.134 50.5164H108.913C108.576 50.5164 108.302 50.2431 108.302 49.906V48.6851C108.302 48.348 108.576 48.0747 108.913 48.0747H110.134Z" fill="white"/>
<path d="M88.7692 48.0747C89.1064 48.0747 89.3796 48.348 89.3796 48.6851V49.906C89.3796 50.2431 89.1064 50.5164 88.7692 50.5164H87.8652V48.0747H88.7692Z" fill="white"/>
<path d="M112.966 48.1159C112.847 48.5768 112.716 49.029 112.575 49.4726V48.6851C112.575 48.4254 112.738 48.204 112.966 48.1159Z" fill="white"/>
<path d="M93.0421 43.8018C93.3792 43.8018 93.6525 44.0751 93.6525 44.4122V45.6331C93.6525 45.9702 93.3792 46.2435 93.0421 46.2435H91.8213C91.4842 46.2435 91.2109 45.9702 91.2109 45.6331V44.4122C91.2109 44.0751 91.4842 43.8018 91.8213 43.8018H93.0421Z" fill="white"/>
<path d="M97.315 43.8018C97.6521 43.8018 97.9254 44.0751 97.9254 44.4122V45.6331C97.9254 45.9702 97.6521 46.2435 97.315 46.2435H96.0942C95.7571 46.2435 95.4838 45.9702 95.4838 45.6331V44.4122C95.4838 44.0751 95.7571 43.8018 96.0942 43.8018H97.315Z" fill="white"/>
<path d="M101.588 43.8018C101.925 43.8018 102.198 44.0751 102.198 44.4122V45.6331C102.198 45.9702 101.925 46.2435 101.588 46.2435H100.367C100.03 46.2435 99.7567 45.9702 99.7567 45.6331V44.4122C99.7567 44.0751 100.03 43.8018 100.367 43.8018H101.588Z" fill="white"/>
<path d="M105.861 43.8018C106.198 43.8018 106.471 44.0751 106.471 44.4122V45.6331C106.471 45.9702 106.198 46.2435 105.861 46.2435H104.64C104.303 46.2435 104.03 45.9702 104.03 45.6331V44.4122C104.03 44.0751 104.303 43.8018 104.64 43.8018H105.861Z" fill="white"/>
<path d="M110.134 43.8018C110.471 43.8018 110.744 44.0751 110.744 44.4122V45.6331C110.744 45.9702 110.471 46.2435 110.134 46.2435H108.913C108.576 46.2435 108.302 45.9702 108.302 45.6331V44.4122C108.302 44.0751 108.576 43.8018 108.913 43.8018H110.134Z" fill="white"/>
<path d="M113.726 43.8018C113.644 44.6398 113.528 45.4534 113.382 46.2435H113.186C112.849 46.2435 112.575 45.9702 112.575 45.6331V44.4122C112.575 44.0751 112.849 43.8018 113.186 43.8018H113.726Z" fill="white"/>
<path d="M88.7692 43.8018C89.1064 43.8018 89.3796 44.0751 89.3796 44.4122V45.6331C89.3796 45.9702 89.1064 46.2435 88.7692 46.2435H87.8652V43.8018H88.7692Z" fill="white"/>
<path d="M93.0421 39.5289C93.3792 39.5289 93.6525 39.8022 93.6525 40.1394V41.3602C93.6525 41.6973 93.3792 41.9706 93.0421 41.9706H91.8213C91.4842 41.9706 91.2109 41.6973 91.2109 41.3602V40.1394C91.2109 39.8022 91.4842 39.5289 91.8213 39.5289H93.0421Z" fill="white"/>
<path d="M97.315 39.5289C97.6521 39.5289 97.9254 39.8022 97.9254 40.1394V41.3602C97.9254 41.6973 97.6521 41.9706 97.315 41.9706H96.0942C95.7571 41.9706 95.4838 41.6973 95.4838 41.3602V40.1394C95.4838 39.8022 95.7571 39.5289 96.0942 39.5289H97.315Z" fill="white"/>
<path d="M101.588 39.5289C101.925 39.5289 102.198 39.8022 102.198 40.1394V41.3602C102.198 41.6973 101.925 41.9706 101.588 41.9706H100.367C100.03 41.9706 99.7567 41.6973 99.7567 41.3602V40.1394C99.7567 39.8022 100.03 39.5289 100.367 39.5289H101.588Z" fill="white"/>
<path d="M105.861 39.5289C106.198 39.5289 106.471 39.8022 106.471 40.1394V41.3602C106.471 41.6973 106.198 41.9706 105.861 41.9706H104.64C104.303 41.9706 104.03 41.6973 104.03 41.3602V40.1394C104.03 39.8022 104.303 39.5289 104.64 39.5289H105.861Z" fill="white"/>
<path d="M110.134 39.5289C110.471 39.5289 110.744 39.8022 110.744 40.1394V41.3602C110.744 41.6973 110.471 41.9706 110.134 41.9706H108.913C108.576 41.9706 108.302 41.6973 108.302 41.3602V40.1394C108.302 39.8022 108.576 39.5289 108.913 39.5289H110.134Z" fill="white"/>
<path d="M113.849 39.5289C113.864 39.9347 113.872 40.3458 113.872 40.7623L113.869 41.2174C113.865 41.4705 113.859 41.7215 113.85 41.9706H113.186C112.849 41.9706 112.575 41.6973 112.575 41.3602V40.1394C112.575 39.8022 112.849 39.5289 113.186 39.5289H113.849Z" fill="white"/>
<path d="M88.7692 39.5289C89.1064 39.5289 89.3796 39.8022 89.3796 40.1394V41.3602C89.3796 41.6973 89.1064 41.9706 88.7692 41.9706H87.8652V39.5289H88.7692Z" fill="white"/>
<path d="M93.0421 35.2561C93.3792 35.2561 93.6525 35.5293 93.6525 35.8665V37.0873C93.6525 37.4244 93.3792 37.6977 93.0421 37.6977H91.8213C91.4842 37.6977 91.2109 37.4244 91.2109 37.0873V35.8665C91.2109 35.5293 91.4842 35.2561 91.8213 35.2561H93.0421Z" fill="white"/>
<path d="M97.315 35.2561C97.6521 35.2561 97.9254 35.5293 97.9254 35.8665V37.0873C97.9254 37.4244 97.6521 37.6977 97.315 37.6977H96.0942C95.7571 37.6977 95.4838 37.4244 95.4838 37.0873V35.8665C95.4838 35.5293 95.7571 35.2561 96.0942 35.2561H97.315Z" fill="white"/>
<path d="M101.588 35.2561C101.925 35.2561 102.198 35.5293 102.198 35.8665V37.0873C102.198 37.4244 101.925 37.6977 101.588 37.6977H100.367C100.03 37.6977 99.7567 37.4244 99.7567 37.0873V35.8665C99.7567 35.5293 100.03 35.2561 100.367 35.2561H101.588Z" fill="white"/>
<path d="M105.861 35.2561C106.198 35.2561 106.471 35.5293 106.471 35.8665V37.0873C106.471 37.4244 106.198 37.6977 105.861 37.6977H104.64C104.303 37.6977 104.03 37.4244 104.03 37.0873V35.8665C104.03 35.5293 104.303 35.2561 104.64 35.2561H105.861Z" fill="white"/>
<path d="M110.134 35.2561C110.471 35.2561 110.744 35.5293 110.744 35.8665V37.0873C110.744 37.4244 110.471 37.6977 110.134 37.6977H108.913C108.576 37.6977 108.302 37.4244 108.302 37.0873V35.8665C108.302 35.5293 108.576 35.2561 108.913 35.2561H110.134Z" fill="white"/>
<path d="M113.377 35.2561C113.525 36.0461 113.641 36.8598 113.724 37.6977H113.186C112.849 37.6977 112.575 37.4244 112.575 37.0873V35.8665C112.575 35.5293 112.849 35.2561 113.186 35.2561H113.377Z" fill="white"/>
<path d="M88.7692 35.2561C89.1064 35.2561 89.3796 35.5293 89.3796 35.8665V37.0873C89.3796 37.4244 89.1064 37.6977 88.7692 37.6977H87.8652V35.2561H88.7692Z" fill="white"/>
<path d="M93.0421 30.9832C93.3792 30.9832 93.6525 31.2565 93.6525 31.5936V32.8144C93.6525 33.1515 93.3792 33.4248 93.0421 33.4248H91.8213C91.4842 33.4248 91.2109 33.1515 91.2109 32.8144V31.5936C91.2109 31.2565 91.4842 30.9832 91.8213 30.9832H93.0421Z" fill="white"/>
<path d="M97.315 30.9832C97.6521 30.9832 97.9254 31.2565 97.9254 31.5936V32.8144C97.9254 33.1515 97.6521 33.4248 97.315 33.4248H96.0942C95.7571 33.4248 95.4838 33.1515 95.4838 32.8144V31.5936C95.4838 31.2565 95.7571 30.9832 96.0942 30.9832H97.315Z" fill="white"/>
<path d="M101.588 30.9832C101.925 30.9832 102.198 31.2565 102.198 31.5936V32.8144C102.198 33.1515 101.925 33.4248 101.588 33.4248H100.367C100.03 33.4248 99.7567 33.1515 99.7567 32.8144V31.5936C99.7567 31.2565 100.03 30.9832 100.367 30.9832H101.588Z" fill="white"/>
<path d="M105.861 30.9832C106.198 30.9832 106.471 31.2565 106.471 31.5936V32.8144C106.471 33.1515 106.198 33.4248 105.861 33.4248H104.64C104.303 33.4248 104.03 33.1515 104.03 32.8144V31.5936C104.03 31.2565 104.303 30.9832 104.64 30.9832H105.861Z" fill="white"/>
<path d="M110.134 30.9832C110.471 30.9832 110.744 31.2565 110.744 31.5936V32.8144C110.744 33.1515 110.471 33.4248 110.134 33.4248H108.913C108.576 33.4248 108.302 33.1515 108.302 32.8144V31.5936C108.302 31.2565 108.576 30.9832 108.913 30.9832H110.134Z" fill="white"/>
<path d="M88.7692 30.9832C89.1064 30.9832 89.3796 31.2565 89.3796 31.5936V32.8144C89.3796 33.1515 89.1064 33.4248 88.7692 33.4248H87.8652V30.9832H88.7692Z" fill="white"/>
<path d="M112.575 32.0502C112.714 32.4855 112.842 32.9291 112.96 33.381C112.734 33.2911 112.575 33.0715 112.575 32.8144V32.0502Z" fill="white"/>
<path d="M93.0421 26.7103C93.3792 26.7103 93.6525 26.9836 93.6525 27.3207V28.5415C93.6525 28.8786 93.3792 29.1519 93.0421 29.1519H91.8213C91.4842 29.1519 91.2109 28.8786 91.2109 28.5415V27.3207C91.2109 26.9836 91.4842 26.7103 91.8213 26.7103H93.0421Z" fill="white"/>
<path d="M97.315 26.7103C97.6521 26.7103 97.9254 26.9836 97.9254 27.3207V28.5415C97.9254 28.8786 97.6521 29.1519 97.315 29.1519H96.0942C95.7571 29.1519 95.4838 28.8786 95.4838 28.5415V27.3207C95.4838 26.9836 95.7571 26.7103 96.0942 26.7103H97.315Z" fill="white"/>
<path d="M101.588 26.7103C101.925 26.7103 102.198 26.9836 102.198 27.3207V28.5415C102.198 28.8786 101.925 29.1519 101.588 29.1519H100.367C100.03 29.1519 99.7567 28.8786 99.7567 28.5415V27.3207C99.7567 26.9836 100.03 26.7103 100.367 26.7103H101.588Z" fill="white"/>
<path d="M105.861 26.7103C106.198 26.7103 106.471 26.9836 106.471 27.3207V28.5415C106.471 28.8786 106.198 29.1519 105.861 29.1519H104.64C104.303 29.1519 104.03 28.8786 104.03 28.5415V27.3207C104.03 26.9836 104.303 26.7103 104.64 26.7103H105.861Z" fill="white"/>
<path d="M110.182 26.7127C110.376 27.0386 110.563 27.3709 110.744 27.7093V28.5415C110.744 28.8786 110.471 29.1519 110.134 29.1519H108.913C108.576 29.1519 108.302 28.8786 108.302 28.5415V27.3207C108.302 26.9836 108.576 26.7103 108.913 26.7103H110.134C110.15 26.7103 110.166 26.7114 110.182 26.7127Z" fill="white"/>
<path d="M88.7692 26.7103C89.1064 26.7103 89.3796 26.9836 89.3796 27.3207V28.5415C89.3796 28.8786 89.1064 29.1519 88.7692 29.1519H87.8652V26.7103H88.7692Z" fill="white"/>
<path d="M93.0421 22.4374C93.3792 22.4374 93.6525 22.7107 93.6525 23.0478V24.2686C93.6525 24.6057 93.3792 24.879 93.0421 24.879H91.8213C91.4842 24.879 91.2109 24.6057 91.2109 24.2686V23.0478C91.2109 22.7107 91.4842 22.4374 91.8213 22.4374H93.0421Z" fill="white"/>
<path d="M97.315 22.4374C97.6521 22.4374 97.9254 22.7107 97.9254 23.0478V24.2686C97.9254 24.6057 97.6521 24.879 97.315 24.879H96.0942C95.7571 24.879 95.4838 24.6057 95.4838 24.2686V23.0478C95.4838 22.7107 95.7571 22.4374 96.0942 22.4374H97.315Z" fill="white"/>
<path d="M101.588 22.4374C101.925 22.4374 102.198 22.7107 102.198 23.0478V24.2686C102.198 24.6057 101.925 24.879 101.588 24.879H100.367C100.03 24.879 99.7567 24.6057 99.7567 24.2686V23.0478C99.7567 22.7107 100.03 22.4374 100.367 22.4374H101.588Z" fill="white"/>
<path d="M105.861 22.4374C106.198 22.4374 106.471 22.7107 106.471 23.0478V24.2686C106.471 24.6057 106.198 24.879 105.861 24.879H104.64C104.303 24.879 104.03 24.6057 104.03 24.2686V23.0478C104.03 22.7107 104.303 22.4374 104.64 22.4374H105.861Z" fill="white"/>
<path d="M108.302 23.964C108.536 24.2626 108.764 24.5676 108.986 24.879H108.913C108.576 24.879 108.302 24.6057 108.302 24.2686V23.964Z" fill="white"/>
<path d="M88.7692 22.4374C89.1064 22.4374 89.3796 22.7107 89.3796 23.0478V24.2686C89.3796 24.6057 89.1064 24.879 88.7692 24.879H87.8652V22.4374H88.7692Z" fill="white"/>
<path d="M93.0421 18.1645C93.3792 18.1645 93.6525 18.4378 93.6525 18.7749V19.9957C93.6525 20.3329 93.3792 20.6061 93.0421 20.6061H91.8213C91.4842 20.6061 91.2109 20.3329 91.2109 19.9957V18.7749C91.2109 18.4378 91.4842 18.1645 91.8213 18.1645H93.0421Z" fill="white"/>
<path d="M97.315 18.1645C97.6521 18.1645 97.9254 18.4378 97.9254 18.7749V19.9957C97.9254 20.3329 97.6521 20.6061 97.315 20.6061H96.0942C95.7571 20.6061 95.4838 20.3329 95.4838 19.9957V18.7749C95.4838 18.4378 95.7571 18.1645 96.0942 18.1645H97.315Z" fill="white"/>
<path d="M101.588 18.1645C101.925 18.1645 102.198 18.4378 102.198 18.7749V19.9957C102.198 20.3329 101.925 20.6061 101.588 20.6061H100.367C100.03 20.6061 99.7567 20.3329 99.7567 19.9957V18.7749C99.7567 18.4378 100.03 18.1645 100.367 18.1645H101.588Z" fill="white"/>
<path d="M104.03 19.5752C104.427 19.9066 104.82 20.2502 105.205 20.6061H104.64C104.303 20.6061 104.03 20.3329 104.03 19.9957V19.5752Z" fill="white"/>
<path d="M88.7692 18.1645C89.1064 18.1645 89.3796 18.4378 89.3796 18.7749V19.9957C89.3796 20.3329 89.1064 20.6061 88.7692 20.6061H87.8652V18.1645H88.7692Z" fill="white"/>
<path d="M93.0421 13.8916C93.3792 13.8916 93.6525 14.1649 93.6525 14.502V15.7228C93.6525 16.06 93.3792 16.3333 93.0421 16.3333H91.8213C91.4842 16.3333 91.2109 16.06 91.2109 15.7228V14.502C91.2109 14.1649 91.4842 13.8916 91.8213 13.8916H93.0421Z" fill="white"/>
<path d="M95.4933 14.3974C96.296 14.7418 97.1096 15.1249 97.9254 15.5476V15.7228C97.9254 16.06 97.6521 16.3333 97.315 16.3333H96.0942C95.7571 16.3333 95.4838 16.06 95.4838 15.7228V14.502C95.4838 14.4663 95.4874 14.4314 95.4933 14.3974Z" fill="white"/>
<path d="M88.7692 13.8916C89.1064 13.8916 89.3796 14.1649 89.3796 14.502V15.7228C89.3796 16.06 89.1064 16.3333 88.7692 16.3333H87.8652V15.6957C87.8652 15.0099 88.0904 14.3847 88.4628 13.8916H88.7692Z" fill="white"/>
</g>
<defs>
<linearGradient id="paint0_linear_1082_1927" x1="87.8652" y1="12.1016" x2="117.894" y2="60.3394" gradientUnits="userSpaceOnUse">
<stop stop-color="#FF20D6"/>
<stop offset="0.399038" stop-color="#FFE500"/>
<stop offset="0.600962" stop-color="#FFE500"/>
<stop offset="1" stop-color="#10D7FF"/>
</linearGradient>
<clipPath id="clip0_1082_1927">
<rect width="256" height="81" fill="white" transform="translate(0 0.5)"/>
</clipPath>
</defs>
</svg>
